<svg width="31" height="31" viewBox="0 0 31 31" fill="none" xmlns="http://www.w3.org/2000/svg">
<path d="M10.2551 27.8302C9.89192 27.4669 9.68787 26.9741 9.68787 26.4604C9.68787 25.9466 9.89192 25.4539 10.2551 25.0906L19.8458 15.4999L10.2551 5.90931C9.90221 5.5439 9.70692 5.05448 9.71133 4.54647C9.71575 4.03847 9.91951 3.55252 10.2787 3.19329C10.638 2.83406 11.1239 2.6303 11.6319 2.62588C12.1399 2.62147 12.6293 2.81676 12.9948 3.16969L23.9552 14.1301C24.3184 14.4935 24.5225 14.9862 24.5225 15.4999C24.5225 16.0137 24.3184 16.5064 23.9552 16.8698L12.9948 27.8302C12.6314 28.1934 12.1387 28.3975 11.625 28.3975C11.1112 28.3975 10.6185 28.1934 10.2551 27.8302Z" fill="white"/>
</svg>
