<svg width="48" height="48" viewBox="0 0 48 48" fill="none" xmlns="http://www.w3.org/2000/svg">
<path d="M4.80586 15.5483C5.35672 14.9976 6.10375 14.6882 6.88267 14.6882C7.66159 14.6882 8.40862 14.9976 8.95949 15.5483L23.5001 30.0889L38.0407 15.5483C38.5948 15.0132 39.3368 14.7171 40.107 14.7238C40.8772 14.7305 41.6139 15.0394 42.1586 15.5841C42.7032 16.1287 43.0121 16.8655 43.0188 17.6357C43.0255 18.4059 42.7295 19.1479 42.1944 19.7019L25.5769 36.3194C25.0261 36.8701 24.279 37.1794 23.5001 37.1794C22.7212 37.1794 21.9742 36.8701 21.4233 36.3194L4.80586 19.7019C4.25516 19.1511 3.9458 18.404 3.9458 17.6251C3.9458 16.8462 4.25516 16.0992 4.80586 15.5483Z" fill="white"/>
</svg>
