<svg width="50" height="50" viewBox="0 0 50 50" fill="none" xmlns="http://www.w3.org/2000/svg">
<g clip-path="url(#clip0_116_88)">
<path d="M25 50C38.8071 50 50 38.8071 50 25C50 11.1929 38.8071 0 25 0C11.1929 0 0 11.1929 0 25C0 38.8071 11.1929 50 25 50Z" fill="#F0B90B"/>
<path fill-rule="evenodd" clip-rule="evenodd" d="M14.3602 18.65L25.0103 8L29.2568 12.2465L18.6068 22.8965L14.3602 18.65ZM14.368 31.3765L31.3878 14.3568L35.6343 18.6033L18.6145 35.623L14.368 31.3765ZM37.7533 20.7343L20.7335 37.754L24.9797 42L42 24.9805L37.7533 20.7343ZM8 25.009L12.2465 20.7625L16.493 25.009L12.2465 29.2555L8 25.009Z" fill="white"/>
</g>
<defs>
<clipPath id="clip0_116_88">
<rect width="50" height="50" fill="white"/>
</clipPath>
</defs>
</svg>
