<svg width="38" height="38" viewBox="0 0 38 38" fill="none" xmlns="http://www.w3.org/2000/svg">
<g clip-path="url(#clip0_1_204)">
<path d="M32.1693 6.90424C29.7052 5.77342 27.1052 4.96634 24.4339 4.50311C24.4097 4.49904 24.3848 4.50256 24.3627 4.51319C24.3406 4.52382 24.3223 4.54105 24.3104 4.56249C23.9755 5.15624 23.605 5.93286 23.3462 6.54086C20.4667 6.10388 17.5378 6.10388 14.6584 6.54086C14.3696 5.86356 14.043 5.20306 13.6799 4.56249C13.6677 4.54128 13.6494 4.52426 13.6274 4.51366C13.6053 4.50306 13.5806 4.49938 13.5564 4.50311C10.8845 4.96386 8.28391 5.77136 5.82104 6.90424C5.79996 6.91228 5.78233 6.92739 5.77116 6.94699C0.845413 14.3071 -0.505962 21.4867 0.156663 28.5761C0.159038 28.6094 0.180413 28.6426 0.206538 28.664C3.07488 30.7887 6.28319 32.4109 9.69466 33.4615C9.71875 33.4691 9.74463 33.4688 9.76855 33.4607C9.79247 33.4526 9.81317 33.4371 9.82766 33.4164C10.5592 32.4189 11.2099 31.3667 11.7704 30.26C11.7821 30.2372 11.7861 30.2112 11.7818 30.186C11.7775 30.1607 11.7652 30.1375 11.7467 30.1199C11.7344 30.1083 11.7198 30.0994 11.7039 30.0937C10.6807 29.7005 9.68966 29.228 8.73991 28.6806C8.71338 28.6656 8.69366 28.6409 8.68481 28.6117C8.67597 28.5826 8.67869 28.5511 8.69241 28.5239C8.70049 28.5062 8.71271 28.4907 8.72804 28.4787C8.92754 28.3291 9.12704 28.1724 9.31704 28.0156C9.33382 28.0021 9.35396 27.9934 9.3753 27.9905C9.39663 27.9876 9.41836 27.9905 9.43816 27.999C15.6583 30.8395 22.3914 30.8395 28.5355 27.999C28.5561 27.9901 28.5786 27.987 28.6008 27.9899C28.6229 27.9928 28.6439 28.0017 28.6614 28.0156C28.8514 28.1724 29.0509 28.3291 29.2504 28.4787C29.2666 28.4906 29.2796 28.5062 29.2882 28.5243C29.2968 28.5423 29.3009 28.5622 29.2999 28.5822C29.299 28.6022 29.2931 28.6217 29.2828 28.6389C29.2725 28.656 29.2581 28.6704 29.2409 28.6806C28.2933 29.233 27.3011 29.7049 26.2745 30.0914C26.2582 30.0973 26.2433 30.1067 26.231 30.1191C26.2187 30.1314 26.2092 30.1462 26.2033 30.1626C26.1978 30.1785 26.1956 30.1953 26.1968 30.212C26.198 30.2288 26.2027 30.2451 26.2104 30.26C26.7804 31.3644 27.4335 32.4189 28.1508 33.4164C28.1653 33.4371 28.186 33.4526 28.2099 33.4607C28.2338 33.4688 28.2597 33.4691 28.2838 33.4615C31.701 32.4142 34.9145 30.7918 37.7862 28.664C37.8005 28.654 37.8125 28.641 37.8211 28.6257C37.8298 28.6105 37.8349 28.5936 37.836 28.5761C38.6293 20.38 36.5084 13.2597 32.2168 6.94936C32.2125 6.93894 32.206 6.92954 32.1978 6.92177C32.1896 6.914 32.1799 6.90802 32.1693 6.90424ZM12.699 24.2584C10.8252 24.2584 9.28379 22.5389 9.28379 20.4299C9.28379 18.3185 10.7967 16.599 12.699 16.599C14.6157 16.599 16.1428 18.3327 16.1143 20.4299C16.1143 22.5389 14.6014 24.2584 12.699 24.2584ZM25.3245 24.2584C23.453 24.2584 21.9093 22.5389 21.9093 20.4299C21.9093 18.3185 23.4222 16.599 25.3245 16.599C27.2412 16.599 28.7707 18.3327 28.7398 20.4299C28.7398 22.5389 27.2412 24.2584 25.3245 24.2584Z" fill="white"/>
</g>
<defs>
<clipPath id="clip0_1_204">
<rect width="38" height="38" fill="white"/>
</clipPath>
</defs>
</svg>
