<svg width="17" height="17" viewBox="0 0 17 17" fill="none" xmlns="http://www.w3.org/2000/svg">
<path d="M11.3333 2.83345H13.4583C13.8341 2.83345 14.1944 2.98271 14.4601 3.24838C14.7257 3.51406 14.875 3.8744 14.875 4.25012V4.95845M11.3333 14.1668H13.4583C13.8341 14.1668 14.1944 14.0175 14.4601 13.7519C14.7257 13.4862 14.875 13.1258 14.875 12.7501V12.0418M6.37571 8.50012H6.375M11.3333 8.50012H14.875M14.875 8.50012L13.4583 7.08345M14.875 8.50012L13.4583 9.91679M3.13438 13.7616L7.38437 15.0366C7.59594 15.1001 7.81943 15.1133 8.03698 15.075C8.25454 15.0368 8.46014 14.9482 8.63735 14.8163C8.81457 14.6845 8.9585 14.513 9.05763 14.3156C9.15677 14.1182 9.20838 13.9003 9.20833 13.6795V3.32079C9.20838 3.09989 9.15677 2.88205 9.05763 2.68465C8.9585 2.48726 8.81457 2.31578 8.63735 2.18392C8.46014 2.05206 8.25454 1.96346 8.03698 1.92521C7.81943 1.88696 7.59594 1.90011 7.38437 1.96362L3.13438 3.23862C2.84256 3.32622 2.58675 3.50556 2.40493 3.75004C2.2231 3.99452 2.12493 4.2911 2.125 4.59579V12.4045C2.12493 12.7091 2.2231 13.0057 2.40493 13.2502C2.58675 13.4947 2.84256 13.674 3.13438 13.7616V13.7616Z" stroke="#F8F8F8" stroke-linecap="round" stroke-linejoin="round"/>
</svg>
