<svg width="50" height="50" viewBox="0 0 50 50" fill="none" xmlns="http://www.w3.org/2000/svg">
<g clip-path="url(#clip0_116_82)">
<path d="M25 0C31.6304 0 37.9893 2.63392 42.6777 7.32233C47.3661 12.0107 50 18.3696 50 25C50 31.6304 47.3661 37.9893 42.6777 42.6777C37.9893 47.3661 31.6304 50 25 50C18.3696 50 12.0107 47.3661 7.32233 42.6777C2.63392 37.9893 0 31.6304 0 25C0 18.3696 2.63392 12.0107 7.32233 7.32233C12.0107 2.63392 18.3696 0 25 0" fill="#53AE94"/>
<path d="M28.075 21.6749V17.9499H36.6V12.2749H13.425V17.9499H21.95V21.6749C15.025 21.9749 9.82495 23.3499 9.82495 24.9999C9.82495 26.6499 15.025 27.9999 21.95 28.3249V40.2249H28.1V28.3249C35 27.9999 40.175 26.6249 40.175 24.9999C40.175 23.3749 35 21.9999 28.1 21.6749M28.1 27.2999C26.0519 27.4249 23.998 27.4249 21.95 27.2999C15.825 27.0499 11.275 25.9749 11.275 24.6999C11.275 23.4249 15.825 22.3749 21.95 22.0999V26.2499C23.9978 26.3834 26.0521 26.3834 28.1 26.2499V22.0999C34.175 22.3749 38.725 23.4249 38.725 24.6999C38.725 25.9749 34.175 27.0249 28.1 27.2999Z" fill="white"/>
</g>
<defs>
<clipPath id="clip0_116_82">
<rect width="50" height="50" fill="white"/>
</clipPath>
</defs>
</svg>
