<svg width="130" height="130" viewBox="0 0 130 130" fill="none" xmlns="http://www.w3.org/2000/svg">
<circle cx="64.9004" cy="65" r="63" fill="#1F1F22"/>
<path d="M104.493 90.0921C109.012 82.9945 111.541 74.8137 111.817 66.4044C112.094 57.9951 110.106 49.666 106.064 42.2871C102.021 34.9083 96.0704 28.7505 88.8344 24.4573C81.5983 20.164 73.3421 17.8927 64.9283 17.8807C56.5145 17.8688 48.2518 20.1165 41.0036 24.3892C33.7554 28.6619 27.7876 34.8027 23.7237 42.17C19.6599 49.5373 17.649 57.8608 17.9014 66.2708C18.1537 74.6809 20.6599 82.8688 25.1581 89.9793L34.9801 83.7656C31.5947 78.4142 29.7084 72.2518 29.5185 65.9223C29.3286 59.5928 30.842 53.3284 33.9006 47.7836C36.9591 42.2388 41.4506 37.6172 46.9057 34.4015C52.3608 31.1858 58.5794 29.4941 64.9118 29.5031C71.2441 29.5121 77.4579 31.2215 82.9039 34.4527C88.3498 37.6839 92.8281 42.3183 95.8708 47.8718C98.9136 53.4252 100.409 59.6939 100.201 66.0228C99.9933 72.3518 98.0896 78.5088 94.6889 83.8506L104.493 90.0921Z" fill="#313134"/>
<path d="M64.8344 81.45C77.2994 81.45 83.2844 75.645 83.2844 65.205C83.2844 54.81 77.2994 49.05 64.8344 49.05C52.3244 49.05 46.3844 54.765 46.3844 65.205C46.3844 75.69 52.3244 81.45 64.8344 81.45ZM64.8344 74.655C57.7244 74.655 54.4844 71.145 54.4844 65.205C54.4844 59.31 57.7244 55.845 64.8344 55.845C71.9444 55.845 75.1844 59.355 75.1844 65.205C75.1844 71.1 71.9444 74.655 64.8344 74.655Z" fill="#C4C4FF"/>
</svg>
