<svg width="130" height="130" viewBox="0 0 130 130" fill="none" xmlns="http://www.w3.org/2000/svg">
<circle cx="64.9004" cy="65" r="63" fill="#1F1F22"/>
<path d="M104.493 90.0921C109.012 82.9945 111.541 74.8137 111.817 66.4044C112.094 57.9951 110.106 49.666 106.064 42.2871C102.021 34.9083 96.0704 28.7505 88.8344 24.4573C81.5983 20.164 73.3421 17.8927 64.9283 17.8807C56.5145 17.8688 48.2518 20.1165 41.0036 24.3892C33.7554 28.6619 27.7876 34.8027 23.7237 42.17C19.6599 49.5373 17.649 57.8608 17.9014 66.2708C18.1537 74.6809 20.6599 82.8688 25.1581 89.9793L34.9801 83.7656C31.5947 78.4142 29.7084 72.2518 29.5185 65.9223C29.3286 59.5928 30.842 53.3284 33.9006 47.7836C36.9591 42.2388 41.4506 37.6172 46.9057 34.4015C52.3608 31.1858 58.5794 29.4941 64.9118 29.5031C71.2441 29.5121 77.4579 31.2215 82.9039 34.4527C88.3498 37.6839 92.8281 42.3183 95.8708 47.8718C98.9136 53.4252 100.409 59.6939 100.201 66.0228C99.9933 72.3518 98.0896 78.5088 94.6889 83.8506L104.493 90.0921Z" fill="#313134"/>
<path d="M104.495 90.0921C108.102 84.4263 110.452 78.0528 111.387 71.4017C112.322 64.7505 111.82 57.9761 109.915 51.5354C108.01 45.0947 104.746 39.1374 100.343 34.0651C95.9401 28.9929 90.5009 24.9236 84.3921 22.1318C78.2833 19.3399 71.6468 17.8903 64.9303 17.8807C58.2137 17.8712 51.5731 19.3019 45.4564 22.0764C39.3396 24.8509 33.8889 28.9046 29.4717 33.9643C25.0545 39.024 21.7735 44.9721 19.85 51.4073L30.9856 54.7358C32.4333 49.8925 34.9026 45.4159 38.227 41.6079C41.5515 37.7999 45.6538 34.749 50.2574 32.6608C54.8609 30.5727 59.8587 29.4959 64.9137 29.5031C69.9687 29.5103 74.9634 30.6013 79.561 32.7025C84.1586 34.8037 88.2522 37.8663 91.5659 41.6838C94.8795 45.5012 97.336 49.9848 98.7699 54.8322C100.204 59.6796 100.582 64.778 99.878 69.7838C99.1743 74.7896 97.4056 79.5863 94.6909 83.8506L104.495 90.0921Z" fill="#9E00FF"/>
<path d="M54.205 70.715V51.5H47.905C47.905 56.19 43.11 56.19 39.505 56.19V61.51C42.06 61.51 45.315 61.51 47.975 59.165L47.94 70.715H39.505V76H62.605V70.715H54.205ZM77.8751 76.35C87.5701 76.35 92.2251 71.835 92.2251 63.715C92.2251 55.63 87.5701 51.15 77.8751 51.15C68.1451 51.15 63.5251 55.595 63.5251 63.715C63.5251 71.87 68.1451 76.35 77.8751 76.35ZM77.8751 71.065C72.3451 71.065 69.8251 68.335 69.8251 63.715C69.8251 59.13 72.3451 56.435 77.8751 56.435C83.4051 56.435 85.9251 59.165 85.9251 63.715C85.9251 68.3 83.4051 71.065 77.8751 71.065Z" fill="#9E00FF"/>
</svg>
