<svg width="130" height="130" viewBox="0 0 130 130" fill="none" xmlns="http://www.w3.org/2000/svg">
<circle cx="64.9004" cy="65" r="63" fill="#1F1F22"/>
<path d="M104.493 90.0921C109.012 82.9945 111.541 74.8137 111.817 66.4044C112.094 57.9951 110.106 49.666 106.064 42.2871C102.021 34.9083 96.0704 28.7505 88.8344 24.4573C81.5983 20.164 73.3421 17.8927 64.9283 17.8807C56.5145 17.8688 48.2518 20.1165 41.0036 24.3892C33.7554 28.6619 27.7876 34.8027 23.7237 42.17C19.6599 49.5373 17.649 57.8608 17.9014 66.2708C18.1537 74.6809 20.6599 82.8688 25.1581 89.9793L34.9801 83.7656C31.5947 78.4142 29.7084 72.2518 29.5185 65.9223C29.3286 59.5928 30.842 53.3284 33.9006 47.7836C36.9591 42.2388 41.4506 37.6172 46.9057 34.4015C52.3608 31.1858 58.5794 29.4941 64.9118 29.5031C71.2441 29.5121 77.4579 31.2215 82.9039 34.4527C88.3498 37.6839 92.8281 42.3183 95.8708 47.8718C98.9136 53.4252 100.409 59.6939 100.201 66.0228C99.9933 72.3518 98.0896 78.5088 94.6889 83.8506L104.493 90.0921Z" fill="#313134"/>
<path d="M104.495 90.0921C108.557 83.7115 111.018 76.4445 111.67 68.9088C112.322 61.3731 111.144 53.7915 108.237 46.8084C105.331 39.8253 100.781 33.6472 94.9753 28.7993C89.1693 23.9514 82.2787 20.577 74.8891 18.9629C67.4995 17.3488 59.8294 17.5427 52.5308 19.5282C45.2322 21.5137 38.5209 25.2321 32.9674 30.3673C27.4139 35.5024 23.1823 41.9025 20.6324 49.0236C18.0825 56.1447 17.2896 63.7761 18.3212 71.2693L29.835 69.6842C29.0586 64.0447 29.6553 58.3012 31.5744 52.9417C33.4936 47.5823 36.6783 42.7655 40.858 38.9007C45.0377 35.0359 50.0887 32.2374 55.5817 30.7431C61.0747 29.2487 66.8474 29.1028 72.4089 30.3176C77.9704 31.5324 83.1564 34.072 87.5261 37.7206C91.8958 41.3692 95.3199 46.019 97.5074 51.2745C99.6949 56.5301 100.581 62.2362 100.091 67.9077C99.6005 73.5792 97.748 79.0484 94.6909 83.8506L104.495 90.0921Z" fill="#9E00FF"/>
<path d="M55.7548 70.715V51.5H49.4548C49.4548 56.19 44.6598 56.19 41.0548 56.19V61.51C43.6098 61.51 46.8648 61.51 49.5248 59.165L49.4898 70.715H41.0548V76H64.1548V70.715H55.7548ZM81.663 70.715V51.5H75.363C75.363 56.19 70.568 56.19 66.963 56.19V61.51C69.518 61.51 72.773 61.51 75.433 59.165L75.398 70.715H66.963V76H90.063V70.715H81.663Z" fill="#9E00FF"/>
</svg>
