<svg width="130" height="130" viewBox="0 0 130 130" fill="none" xmlns="http://www.w3.org/2000/svg">
<circle cx="64.9004" cy="65" r="63" fill="#1F1F22"/>
<path d="M104.493 90.0921C109.012 82.9945 111.541 74.8137 111.817 66.4044C112.094 57.9951 110.106 49.666 106.064 42.2871C102.021 34.9083 96.0704 28.7505 88.8344 24.4573C81.5983 20.164 73.3421 17.8927 64.9283 17.8807C56.5145 17.8688 48.2518 20.1165 41.0036 24.3892C33.7554 28.6619 27.7876 34.8027 23.7237 42.17C19.6599 49.5373 17.649 57.8608 17.9014 66.2708C18.1537 74.6809 20.6599 82.8688 25.1581 89.9793L34.9801 83.7656C31.5947 78.4142 29.7084 72.2518 29.5185 65.9223C29.3286 59.5928 30.842 53.3284 33.9006 47.7836C36.9591 42.2388 41.4506 37.6172 46.9057 34.4015C52.3608 31.1858 58.5794 29.4941 64.9118 29.5031C71.2441 29.5121 77.4579 31.2215 82.9039 34.4527C88.3498 37.6839 92.8281 42.3183 95.8708 47.8718C98.9136 53.4252 100.409 59.6939 100.201 66.0228C99.9933 72.3518 98.0896 78.5088 94.6889 83.8506L104.493 90.0921Z" fill="#313134"/>
<path d="M104.495 90.0921C109.014 82.9945 111.543 74.8137 111.819 66.4044C112.096 57.9951 110.108 49.666 106.066 42.2871C102.023 34.9083 96.0723 28.7505 88.8363 24.4573C81.6003 20.164 73.3441 17.8927 64.9303 17.8807C56.5164 17.8688 48.2538 20.1165 41.0056 24.3892C33.7574 28.6619 27.7896 34.8027 23.7257 42.17C19.6618 49.5373 17.651 57.8608 17.9033 66.2708C18.1556 74.6809 20.6618 82.8688 25.1601 89.9793L34.9821 83.7656C31.5966 78.4142 29.7104 72.2518 29.5205 65.9223C29.3306 59.5928 30.844 53.3284 33.9025 47.7836C36.9611 42.2388 41.4525 37.6172 46.9076 34.4015C52.3628 31.1858 58.5814 29.4941 64.9137 29.5031C71.2461 29.5121 77.4599 31.2215 82.9058 34.4527C88.3518 37.6839 92.83 42.3183 95.8728 47.8718C98.9155 53.4252 100.411 59.6939 100.203 66.0228C99.9953 72.3518 98.0915 78.5088 94.6909 83.8506L104.495 90.0921Z" fill="#9E00FF"/>
<path d="M52.3036 70.715V51.5H46.0036C46.0036 56.19 41.2086 56.19 37.6036 56.19V61.51C40.1586 61.51 43.4136 61.51 46.0736 59.165L46.0386 70.715H37.6036V76H60.7036V70.715H52.3036ZM90.7809 58.85C90.7809 52.76 85.8459 51.15 77.4109 51.15C69.2909 51.15 63.5509 52.97 63.5509 61.125H69.8509C69.8509 57.24 72.3359 56.435 77.7609 56.435C83.1859 56.435 84.4809 57.31 84.4809 59.34C84.4809 64.905 62.9909 62.63 62.9909 72.815V76H90.4309V70.715H71.8109C73.3509 65.85 90.7809 68.335 90.7809 58.85Z" fill="#9E00FF"/>
</svg>
