<svg width="130" height="130" viewBox="0 0 130 130" fill="none" xmlns="http://www.w3.org/2000/svg">
<circle cx="64.9004" cy="65" r="63" fill="#1F1F22"/>
<path d="M104.493 90.0921C109.012 82.9945 111.541 74.8137 111.817 66.4044C112.094 57.9951 110.106 49.666 106.064 42.2871C102.021 34.9083 96.0704 28.7505 88.8344 24.4573C81.5983 20.164 73.3421 17.8927 64.9283 17.8807C56.5145 17.8688 48.2518 20.1165 41.0036 24.3892C33.7554 28.6619 27.7876 34.8027 23.7237 42.17C19.6599 49.5373 17.649 57.8608 17.9014 66.2708C18.1537 74.6809 20.6599 82.8688 25.1581 89.9793L34.9801 83.7656C31.5947 78.4142 29.7084 72.2518 29.5185 65.9223C29.3286 59.5928 30.842 53.3284 33.9006 47.7836C36.9591 42.2388 41.4506 37.6172 46.9057 34.4015C52.3608 31.1858 58.5794 29.4941 64.9118 29.5031C71.2441 29.5121 77.4579 31.2215 82.9039 34.4527C88.3498 37.6839 92.8281 42.3183 95.8708 47.8718C98.9136 53.4252 100.409 59.6939 100.201 66.0228C99.9933 72.3518 98.0896 78.5088 94.6889 83.8506L104.493 90.0921Z" fill="#313134"/>
<path d="M104.495 90.0921C109.932 81.5525 112.464 71.4852 111.716 61.3896L100.126 62.2486C100.689 69.8467 98.7825 77.4235 94.6909 83.8506L104.495 90.0921Z" fill="#C4C4FF"/>
<path d="M82.1144 58.95C82.1144 51.12 75.7694 49.05 64.9244 49.05C54.4844 49.05 47.1044 51.39 47.1044 61.875H55.2044C55.2044 56.88 58.3994 55.845 65.3744 55.845C72.3494 55.845 74.0144 56.97 74.0144 59.58C74.0144 66.735 46.3844 63.81 46.3844 76.905V81H81.6644V74.205H57.7244C59.7044 67.95 82.1144 71.145 82.1144 58.95Z" fill="#C4C4FF"/>
</svg>
