<svg width="130" height="130" viewBox="0 0 130 130" fill="none" xmlns="http://www.w3.org/2000/svg">
<circle cx="64.9004" cy="65" r="63" fill="#1F1F22"/>
<path d="M104.493 90.0921C109.012 82.9945 111.541 74.8137 111.817 66.4044C112.094 57.9951 110.106 49.666 106.064 42.2871C102.021 34.9083 96.0704 28.7505 88.8344 24.4573C81.5983 20.164 73.3421 17.8927 64.9283 17.8807C56.5145 17.8688 48.2518 20.1165 41.0036 24.3892C33.7554 28.6619 27.7876 34.8027 23.7237 42.17C19.6599 49.5373 17.649 57.8608 17.9014 66.2708C18.1537 74.6809 20.6599 82.8688 25.1581 89.9793L34.9801 83.7656C31.5947 78.4142 29.7084 72.2518 29.5185 65.9223C29.3286 59.5928 30.842 53.3284 33.9006 47.7836C36.9591 42.2388 41.4506 37.6172 46.9057 34.4015C52.3608 31.1858 58.5794 29.4941 64.9118 29.5031C71.2441 29.5121 77.4579 31.2215 82.9039 34.4527C88.3498 37.6839 92.8281 42.3183 95.8708 47.8718C98.9136 53.4252 100.409 59.6939 100.201 66.0228C99.9933 72.3518 98.0896 78.5088 94.6889 83.8506L104.493 90.0921Z" fill="#313134"/>
<path d="M104.495 90.0921C108.102 84.4263 110.452 78.0528 111.387 71.4017C112.322 64.7505 111.82 57.9761 109.915 51.5354C108.01 45.0947 104.746 39.1374 100.343 34.0651C95.9401 28.9929 90.5009 24.9236 84.3921 22.1318L79.561 32.7025C84.1586 34.8037 88.2522 37.8663 91.5659 41.6838C94.8795 45.5012 97.336 49.9848 98.7699 54.8322C100.204 59.6796 100.582 64.778 99.878 69.7838C99.1743 74.7896 97.4056 79.5863 94.6909 83.8506L104.495 90.0921Z" fill="#6FB1FF"/>
<path d="M69.1544 59.76C64.0244 59.76 60.6494 60.66 56.0144 62.64L58.0394 55.935H79.8644V49.5H52.0094L47.9594 65.88L54.6194 67.185C60.0194 65.025 63.1244 64.395 66.2294 64.395C72.3944 64.395 74.0144 66.465 74.0144 69.435C74.0144 72.63 71.8544 74.655 65.1494 74.655C58.2194 74.655 54.4844 73.62 54.4844 70.065H46.3844C46.3844 79.38 54.4844 81.45 64.9244 81.45C75.4544 81.45 82.1144 78.165 82.1144 70.335C82.1144 63.585 77.2994 59.76 69.1544 59.76Z" fill="#6FB1FF"/>
</svg>
