<svg width="130" height="130" viewBox="0 0 130 130" fill="none" xmlns="http://www.w3.org/2000/svg">
<circle cx="64.9004" cy="65" r="63" fill="#1F1F22"/>
<path d="M104.493 90.0921C109.012 82.9945 111.541 74.8137 111.817 66.4044C112.094 57.9951 110.106 49.666 106.064 42.2871C102.021 34.9083 96.0704 28.7505 88.8344 24.4573C81.5983 20.164 73.3421 17.8927 64.9283 17.8807C56.5145 17.8688 48.2518 20.1165 41.0036 24.3892C33.7554 28.6619 27.7876 34.8027 23.7237 42.17C19.6599 49.5373 17.649 57.8608 17.9014 66.2708C18.1537 74.6809 20.6599 82.8688 25.1581 89.9793L34.9801 83.7656C31.5947 78.4142 29.7084 72.2518 29.5185 65.9223C29.3286 59.5928 30.842 53.3284 33.9006 47.7836C36.9591 42.2388 41.4506 37.6172 46.9057 34.4015C52.3608 31.1858 58.5794 29.4941 64.9118 29.5031C71.2441 29.5121 77.4579 31.2215 82.9039 34.4527C88.3498 37.6839 92.8281 42.3183 95.8708 47.8718C98.9136 53.4252 100.409 59.6939 100.201 66.0228C99.9933 72.3518 98.0896 78.5088 94.6889 83.8506L104.493 90.0921Z" fill="#313134"/>
<path d="M104.495 90.0921C109.014 82.9945 111.543 74.8137 111.819 66.4044C112.096 57.9951 110.108 49.666 106.066 42.2871C102.023 34.9083 96.0723 28.7505 88.8363 24.4573C81.6003 20.164 73.3441 17.8927 64.9303 17.8807L64.9137 29.5031C71.2461 29.5121 77.4599 31.2215 82.9058 34.4527C88.3518 37.6839 92.83 42.3183 95.8728 47.8718C98.9155 53.4252 100.411 59.6939 100.203 66.0228C99.9953 72.3518 98.0915 78.5088 94.6909 83.8506L104.495 90.0921Z" fill="#6FB1FF"/>
<path d="M66.8086 59.48C62.1886 59.48 58.9336 60.67 57.0436 62.14C57.6736 57.17 60.4036 56.155 65.3736 56.155C69.9236 56.155 73.4936 56.96 76.9586 57.625V52.62C73.9836 51.99 69.9236 51.15 63.8336 51.15C56.6236 51.15 50.6036 54.195 50.6036 64.345C50.6036 72.255 54.8036 76.35 65.3036 76.35C73.9486 76.35 78.6036 73.48 78.6036 67.775C78.6036 61.86 73.9486 59.48 66.8086 59.48ZM64.6036 71.345C59.0386 71.345 56.9036 69.805 56.9036 67.25C56.9036 64.66 59.2136 63.19 64.6036 63.19C70.5886 63.19 72.3036 64.695 72.3036 67.25C72.3036 69.805 70.5536 71.345 64.6036 71.345Z" fill="#6FB1FF"/>
</svg>
