<svg width="130" height="130" viewBox="0 0 130 130" fill="none" xmlns="http://www.w3.org/2000/svg">
<circle cx="64.9004" cy="65" r="63" fill="#1F1F22"/>
<path d="M104.493 90.0921C109.012 82.9945 111.541 74.8137 111.817 66.4044C112.094 57.9951 110.106 49.666 106.064 42.2871C102.021 34.9083 96.0704 28.7505 88.8344 24.4573C81.5983 20.164 73.3421 17.8927 64.9283 17.8807C56.5145 17.8688 48.2518 20.1165 41.0036 24.3892C33.7554 28.6619 27.7876 34.8027 23.7237 42.17C19.6599 49.5373 17.649 57.8608 17.9014 66.2708C18.1537 74.6809 20.6599 82.8688 25.1581 89.9793L34.9801 83.7656C31.5947 78.4142 29.7084 72.2518 29.5185 65.9223C29.3286 59.5928 30.842 53.3284 33.9006 47.7836C36.9591 42.2388 41.4506 37.6172 46.9057 34.4015C52.3608 31.1858 58.5794 29.4941 64.9118 29.5031C71.2441 29.5121 77.4579 31.2215 82.9039 34.4527C88.3498 37.6839 92.8281 42.3183 95.8708 47.8718C98.9136 53.4252 100.409 59.6939 100.201 66.0228C99.9933 72.3518 98.0896 78.5088 94.6889 83.8506L104.493 90.0921Z" fill="#313134"/>
<path d="M104.495 90.0921C110.394 80.8269 112.859 69.7879 111.464 58.8935C110.069 47.9991 104.9 37.9378 96.8574 30.4582C88.8144 22.9785 78.405 18.5532 67.4381 17.9513C56.4712 17.3494 45.64 20.6089 36.8267 27.1634L43.7625 36.4894C50.3956 31.5564 58.5473 29.1032 66.8012 29.5562C75.055 30.0092 82.8893 33.3398 88.9426 38.9691C94.9959 44.5984 98.8856 52.1707 99.9358 60.37C100.986 68.5693 99.1301 76.8774 94.6909 83.8506L104.495 90.0921Z" fill="#FF9900"/>
<path d="M75.2948 62.105C77.0448 61.055 77.9548 59.55 77.9548 57.59C77.9548 53.18 74.4898 51.15 66.0548 51.15C57.5848 51.15 54.1548 53.18 54.1548 57.59C54.1548 59.55 55.0648 61.055 56.8148 62.105C53.2448 63.365 51.7048 65.605 51.7048 68.72C51.7048 73.655 55.1348 76.35 66.0548 76.35C76.9398 76.35 80.4048 73.62 80.4048 68.72C80.4048 65.605 78.8298 63.365 75.2948 62.105ZM66.0548 55.7C70.8848 55.7 72.2498 56.365 72.2498 58.08C72.2498 59.795 70.8848 60.46 66.0548 60.46C61.1898 60.46 59.8598 59.795 59.8598 58.08C59.8598 56.365 61.2248 55.7 66.0548 55.7ZM66.0548 71.485C59.8948 71.485 58.0048 70.365 58.0048 67.985C58.0048 65.64 59.8598 64.555 66.0548 64.555C72.2498 64.555 74.1048 65.675 74.1048 67.985C74.1048 70.365 72.2148 71.485 66.0548 71.485Z" fill="#FF9900"/>
</svg>
