<svg width="130" height="130" viewBox="0 0 130 130" fill="none" xmlns="http://www.w3.org/2000/svg">
<circle cx="64.9004" cy="65" r="63" fill="#1F1F22"/>
<path d="M104.493 90.0921C109.012 82.9945 111.541 74.8137 111.817 66.4044C112.094 57.9951 110.106 49.666 106.064 42.2871C102.021 34.9083 96.0704 28.7505 88.8344 24.4573C81.5983 20.164 73.3421 17.8927 64.9283 17.8807C56.5145 17.8688 48.2518 20.1165 41.0036 24.3892C33.7554 28.6619 27.7876 34.8027 23.7237 42.17C19.6599 49.5373 17.649 57.8608 17.9014 66.2708C18.1537 74.6809 20.6599 82.8688 25.1581 89.9793L34.9801 83.7656C31.5947 78.4142 29.7084 72.2518 29.5185 65.9223C29.3286 59.5928 30.842 53.3284 33.9006 47.7836C36.9591 42.2388 41.4506 37.6172 46.9057 34.4015C52.3608 31.1858 58.5794 29.4941 64.9118 29.5031C71.2441 29.5121 77.4579 31.2215 82.9039 34.4527C88.3498 37.6839 92.8281 42.3183 95.8708 47.8718C98.9136 53.4252 100.409 59.6939 100.201 66.0228C99.9933 72.3518 98.0896 78.5088 94.6889 83.8506L104.493 90.0921Z" fill="#313134"/>
<path d="M104.495 90.0921C107.875 84.7828 110.154 78.8485 111.196 72.6415C112.238 66.4345 112.023 60.0814 110.562 53.9594C109.102 47.8373 106.426 42.0711 102.694 37.0032C98.9615 31.9352 94.2492 27.6688 88.8363 24.4573C83.4235 21.2457 77.4205 19.1545 71.1839 18.3078C64.9472 17.4611 58.604 17.8761 52.5308 19.5282C46.4577 21.1804 40.7784 24.036 35.8301 27.9254C30.8819 31.8149 26.7656 36.6589 23.7257 42.17L33.9025 47.7836C36.1904 43.6359 39.2884 39.9902 43.0125 37.0629C46.7366 34.1356 51.0109 31.9865 55.5817 30.7431C60.1525 29.4996 64.9265 29.1873 69.6203 29.8245C74.3141 30.4618 78.832 32.0357 82.9058 34.4527C86.9796 36.8698 90.5262 40.0808 93.335 43.895C96.1439 47.7092 98.1577 52.0489 99.257 56.6565C100.356 61.264 100.518 66.0455 99.7341 70.717C98.9497 75.3885 97.2347 79.8547 94.6909 83.8506L104.495 90.0921Z" fill="#FF9900"/>
<path d="M66.5536 51.15C57.9086 51.15 53.2536 54.02 53.2536 59.725C53.2536 65.64 57.9086 68.02 65.0486 68.02C69.6686 68.02 72.9236 66.83 74.8136 65.36C74.1836 70.33 71.4536 71.345 66.4836 71.345C61.9336 71.345 58.3636 70.54 54.8986 69.875V74.88C57.8736 75.51 61.9336 76.35 68.0236 76.35C75.2336 76.35 81.2536 73.305 81.2536 63.155C81.2536 55.245 77.0536 51.15 66.5536 51.15ZM67.2536 64.31C61.2686 64.31 59.5536 62.805 59.5536 60.25C59.5536 57.695 61.3036 56.155 67.2536 56.155C72.8186 56.155 74.9536 57.695 74.9536 60.25C74.9536 62.84 72.6436 64.31 67.2536 64.31Z" fill="#FF9900"/>
</svg>
